<?xml version="1.0" encoding="UTF-8"?> <svg xmlns="http://www.w3.org/2000/svg" xmlns:xlink="http://www.w3.org/1999/xlink" width="113" height="63" viewBox="0 0 113 63"><defs><path id="a" d="M20.97 47.963a3.775 3.775 0 0 1 2.082 2.675l.036.212-.015.002c-.214.033-1.775.298-1.775.298a1.958 1.958 0 0 0-1.098-1.558c-.99-.47-2.144-.036-2.618.967-.474.997-.08 2.161.911 2.632a1.96 1.96 0 0 0 1.905-.115l.884 1.562a3.751 3.751 0 0 1-3.564.182c-1.878-.894-2.663-3.161-1.771-5.044.902-1.899 3.148-2.71 5.023-1.813zM68.11.442v1.577H65.09v1.428h2.65v1.545h-2.65v1.32h3.115v1.576h-4.918V.442h4.822zM27.963 56.729a1.96 1.96 0 0 0 2.446-1.344c.313-1.062-.278-2.165-1.325-2.473-1.048-.31-2.122.3-2.431 1.365-.311 1.058.261 2.146 1.31 2.452m22.957-1.954l4.784.142-.046 1.57-2.998-.094-.043 1.418 2.634.08-.044 1.534-2.636-.077-.04 1.304 3.096.094-.05 1.569-4.88-.147.223-7.393zm14.533 1.228l.132.169-.013.01c-.174.13-1.423 1.105-1.423 1.105a1.949 1.949 0 0 0-1.703-.848c-1.092.05-1.905.984-1.85 2.09.054 1.105.954 1.942 2.046 1.89a1.97 1.97 0 0 0 1.624-1.007l1.518.957a3.761 3.761 0 0 1-3.052 1.85c-2.076.106-3.843-1.52-3.946-3.599-.104-2.104 1.492-3.882 3.566-3.986a3.776 3.776 0 0 1 3.101 1.369zM43.49 54.124l1.8.189-.6 5.796 2.642.276-.163 1.556-4.44-.46.761-7.357zm29.968-.553l.211 1.554-1.888.26.783 5.772-1.771.24-.784-5.774-1.888.26-.21-1.552 5.547-.76zm-37.308-.642l1.78.323-1.044 5.733 2.61.48-.277 1.54-4.393-.806 1.324-7.27zm42.037-.301l1.519 7.236-1.748.37-1.52-7.238 1.75-.368zm-48.595-1.444c2.012.593 3.138 2.691 2.544 4.71a3.772 3.772 0 0 1-4.681 2.567c-1.993-.59-3.123-2.701-2.538-4.699.593-2.014 2.684-3.168 4.675-2.578zm36 4.983l-.006.006-.001-.001.007-.005zm20.871.13a1.972 1.972 0 0 0 1.285-2.486 1.975 1.975 0 0 0-2.478-1.31c-1.04.326-1.591 1.434-1.26 2.489.33 1.053 1.409 1.635 2.453 1.306m3-3.025a3.783 3.783 0 0 1-2.46 4.747c-1.981.624-4.095-.499-4.718-2.482-.63-2.008.466-4.13 2.444-4.757 2.002-.63 4.105.484 4.734 2.492zm6.634-7.204l3.288 6.617-1.443.72-4.637-2.682 1.99 4.01-1.612.801-3.286-6.618 1.477-.742 4.57 2.66-1.968-3.958 1.621-.808zM26.21 22.816v.66h-1.067c-.704 0-1.235.17-1.575.51-.307.306-.478.767-.509 1.372l-.005.207v5.93c0 .727.171 1.407.466 1.872.31.484.764.86 1.347 1.118.62.28 1.216.396 1.993.396.72 0 1.397-.1 2.016-.306.616-.203 1.324-.492 1.685-.844.661-.686.876-1.687.902-2.78l.003-.235-.121-4.114c0-1.342-.39-2.264-1.16-2.735a2.24 2.24 0 0 0-.693-.289 3.687 3.687 0 0 0-.786-.097l-.169-.005-.104-.007v-.653h6.498v.65l-.098.01a2.558 2.558 0 0 0-.716.14c-.2.067-.412.178-.627.335-.31.234-.55.548-.716.946-.138.332-.22.717-.244 1.15l-.007.266v4.826c0 1.349-.382 2.469-1.078 3.147a3.781 3.781 0 0 1-1.272.823c-.932.348-2.051.528-3.33.528-.982 0-2.394-.107-3.135-.283-.773-.188-1.425-.458-1.935-.806-.887-.61-1.4-1.593-1.46-2.78l-.006-.24v-5.963c0-1.346-.623-2.029-1.908-2.086l-.179-.003h-.6v-.66h8.59zm19.891-.001v.66h-.261c-.414 0-.746.062-.992.19-.228.115-.337.27-.337.465 0 .117.04.266.115.437.08.18.188.359.32.53l2.235 2.605 1.821-1.857c.437-.457.66-.875.66-1.25 0-.373-.15-.662-.463-.882-.305-.213-.635-.22-1.243-.239l-.159-.004v-.655h6.697v.645l-.09.012c-.635.105-1.11.354-1.568.595l-.249.126a10.314 10.314 0 0 0-2.728 2.018l-2.093 2.144 3.833 4.508c.503.583 1.032 1.045 1.573 1.372.533.322 1.034.488 1.491.488h.324v.657h-8.253v-.657h.8c.476 0 .846-.067 1.1-.201.233-.122.348-.28.348-.488 0-.245-.134-.511-.395-.794l-2.597-3.076-1.905 1.954a5.93 5.93 0 0 0-.482.563 1.757 1.757 0 0 0-.26.467 1.446 1.446 0 0 0-.075.452c0 .409.048.568.345.777.322.229.781.346 1.368.346h.462v.657h-7.43v-.645l.094-.01c.3-.04.516-.138.725-.228.117-.053.227-.105.346-.143.32-.096.69-.243 1.107-.437.976-.459 1.908-1.129 2.772-1.981l2.348-2.4-3.814-4.428c-.921-1.083-1.98-1.634-3.16-1.634h-.418v-.66H46.1zm-37.189.001v.534h-.98c-.708 0-1.238.172-1.575.505-.3.303-.47.766-.5 1.38l-.005.211v9.155h3.023c.6 0 1.17-.137 1.698-.402.533-.266 1-.643 1.391-1.119.238-.3.45-.603.63-.898a6.73 6.73 0 0 0 .521-1.076c.132-.34.264-.723.393-1.141l.096-.32.023-.076h.505v5.81H.464l-.023-.778H1c1.342 0 2.026-.633 2.082-1.932l.004-.181v-7.042c0-1.35-.625-2.035-1.908-2.092L1 23.35H.46v-.534H8.91zM94.263 34.59c-.666 0-1.18-.122-1.53-.35-.177-.132-.413-.38-.693-.733a16.005 16.005 0 0 1-.908-1.256c-.12-.178-.226-.333-.316-.469-.09-.14-.23-.348-.42-.618l-.305-.467-.041-.01a10.55 10.55 0 0 1-1.27-.36 8.433 8.433 0 0 1-1.11-.488 12.946 12.946 0 0 1-.981-.572c.766 0 1.36-.019 1.765-.05a12.179 12.179 0 0 0 1.802-.302c.531-.134.957-.368 1.3-.559l.15-.083c.967-.57 1.458-1.332 1.458-2.272 0-.344-.077-.695-.228-1.045a2.866 2.866 0 0 0-.607-.907c-.441-.446-1.04-.768-1.789-.955-.735-.184-1.748-.278-3.005-.278H78.16v.65h.43c.71 0 1.239.169 1.57.502.333.333.5.862.5 1.572v6.975c0 .705-.171 1.233-.503 1.568-.337.337-.861.507-1.567.507h-.43v.791h7.762v-.791h-.458c-.695 0-1.222-.172-1.56-.511-.336-.337-.508-.863-.508-1.564v-3.248h2.526l4.103 6.068.03.046h4.649v-.791h-.441zM66.667 22.816v.66h-1.065c-.704 0-1.235.17-1.575.51-.306.306-.478.767-.509 1.372l-.005.207v5.93c0 .727.17 1.407.466 1.872.311.484.764.86 1.347 1.118.62.28 1.216.396 1.993.396.719 0 1.396-.1 2.014-.306.616-.203 1.324-.492 1.686-.844.662-.686.878-1.687.903-2.78l.003-.235-.123-4.114c0-1.342-.389-2.264-1.157-2.735a2.21 2.21 0 0 0-.696-.289 3.684 3.684 0 0 0-.785-.097l-.167-.005-.105-.007v-.653h6.499v.65l-.099.01a2.511 2.511 0 0 0-.716.14c-.2.067-.414.178-.629.335-.307.234-.55.548-.716.946a3.539 3.539 0 0 0-.242 1.15l-.007.266v4.826c0 1.349-.382 2.469-1.08 3.147a3.761 3.761 0 0 1-1.272.823c-.932.348-2.05.528-3.33.528-.98 0-2.394-.107-3.133-.283-.775-.188-1.425-.458-1.934-.806-.89-.61-1.4-1.593-1.46-2.78l-.007-.24v-5.963c0-1.346-.625-2.029-1.91-2.086l-.179-.003h-.6v-.66h8.59zm37.505 0v.636h-.997c-.332 0-.589.061-.768.178a.53.53 0 0 0-.249.472c0 .102.023.196.073.286.034.067.136.225.412.628l.088.128 2.763 3.872 2.576-3.394c.365-.467.518-.708.518-.989 0-.418-.121-.711-.368-.894-.223-.167-.545-.252-1.033-.269l-.19-.003h-.77v-.651h6.359v.745l-.094.01c-.399.045-.76.12-1.076.225a4.14 4.14 0 0 0-.877.402 4.815 4.815 0 0 0-.832.668c-.217.209-.43.441-.638.692l-.205.256-2.99 3.96v2.74c0 .702.172 1.228.508 1.565.3.303.748.471 1.336.505l.226.006h.91v.791h-8.73v-.791h.944c.704 0 1.23-.17 1.566-.507.301-.301.468-.756.499-1.36l.005-.208v-2.546l-3.558-4.873c-.449-.611-.887-1.043-1.311-1.277-.368-.205-.84-.32-1.404-.346l-.247-.006h-.321v-.651h7.875zm-17.423.65c2.294 0 3.36.797 3.36 2.501 0 .578-.101.963-.366 1.38-.239.381-.613.668-1.101.854-.504.195-1.158.294-1.945.294h-3.3v-5.03h3.352zM50.46.442v1.576h-1.92v5.87h-1.8v-5.87h-1.92V.443h5.64zm5.008-.001v2.937h2.264V.442h1.832v7.445h-1.832V4.992h-2.264v2.895h-1.8V.442h1.8z"></path></defs><g fill="none" fill-rule="evenodd"><mask id="b" fill="#fff"><use xlink:href="#a"></use></mask><use fill="#1C1C1C" xlink:href="#a"></use><g fill="#414141" mask="url(#b)"><path d="M0 0h113v63H0z"></path></g></g></svg> 